<svg viewBox="0 0 1560 950" xmlns="http://www.w3.org/2000/svg" font-family="Segoe UI, Arial, sans-serif">
  <rect x="0" y="0" width="1560" height="950" fill="#FAF3E8"/>

  <defs>
    <marker id="crow" markerWidth="14" markerHeight="14" refX="10" refY="5" orient="auto">
      <path d="M0,0 L10,5 L0,10" fill="none" stroke="#555" stroke-width="1.4"/>
    </marker>
  </defs>

  <g stroke="#666" stroke-width="1.6" fill="none">
    <line x1="170" y1="160" x2="620" y2="340"/>
    <line x1="750" y1="160" x2="750" y2="280"/>
    <line x1="1330" y1="160" x2="880" y2="340"/>
    <line x1="300" y1="100" x2="620" y2="590"/>
    <line x1="880" y1="100" x2="750" y2="520"/>
    <line x1="680" y1="660" x2="410" y2="760"/>
    <line x1="820" y1="660" x2="1070" y2="760"/>
    <line x1="1200" y1="100" x2="540" y2="820"/>
    <line x1="1330" y1="590" x2="1070" y2="760"/>
  </g>

  <g font-size="15" fill="#444">
    <rect x="150" y="230" width="20" height="18" fill="#FAF3E8"/><text x="150" y="245">1</text>
    <rect x="580" y="325" width="46" height="18" fill="#FAF3E8"/><text x="580" y="340">0..*</text>

    <rect x="735" y="200" width="20" height="18" fill="#FAF3E8"/><text x="735" y="215">1</text>
    <rect x="735" y="260" width="46" height="18" fill="#FAF3E8"/><text x="735" y="275">0..*</text>

    <rect x="1300" y="230" width="20" height="18" fill="#FAF3E8"/><text x="1300" y="245">1</text>
    <rect x="840" y="325" width="46" height="18" fill="#FAF3E8"/><text x="840" y="340">0..*</text>

    <rect x="290" y="170" width="40" height="18" fill="#FAF3E8"/><text x="290" y="185">0..1</text>
    <rect x="580" y="565" width="46" height="18" fill="#FAF3E8"/><text x="580" y="580">0..*</text>

    <rect x="850" y="170" width="20" height="18" fill="#FAF3E8"/><text x="850" y="185">1</text>
    <rect x="710" y="495" width="46" height="18" fill="#FAF3E8"/><text x="710" y="510">0..*</text>

    <rect x="655" y="700" width="20" height="18" fill="#FAF3E8"/><text x="655" y="715">1</text>
    <rect x="380" y="735" width="46" height="18" fill="#FAF3E8"/><text x="380" y="750">0..*</text>

    <rect x="800" y="700" width="20" height="18" fill="#FAF3E8"/><text x="800" y="715">1</text>
    <rect x="1040" y="735" width="46" height="18" fill="#FAF3E8"/><text x="1040" y="750">0..*</text>

    <rect x="1180" y="170" width="20" height="18" fill="#FAF3E8"/><text x="1180" y="185">1</text>
    <rect x="500" y="795" width="46" height="18" fill="#FAF3E8"/><text x="500" y="810">0..*</text>

    <rect x="1305" y="620" width="20" height="18" fill="#FAF3E8"/><text x="1305" y="635">1</text>
    <rect x="1040" y="735" width="0" height="0" fill="none"/>
    <rect x="1090" y="735" width="46" height="18" fill="#FAF3E8"/><text x="1090" y="750">0..*</text>
  </g>

  <g>
    <rect x="40" y="40" width="260" height="120" rx="6" fill="#FFFFFF" stroke="#8B2E2E" stroke-width="1.6"/>
    <rect x="40" y="40" width="260" height="30" rx="6" fill="#8B2E2E"/>
    <rect x="40" y="58" width="260" height="12" fill="#8B2E2E"/>
    <text x="170" y="60" text-anchor="middle" fill="#FFFFFF" font-size="15" font-weight="bold">CLIENTES</text>
    <text x="55" y="90" font-size="13" fill="#222"><tspan font-weight="bold">PK</tspan> id_cliente</text>
    <text x="55" y="110" font-size="13" fill="#222">nome</text>
    <text x="55" y="130" font-size="13" fill="#222">telefone, email</text>
    <text x="55" y="150" font-size="13" fill="#222">data_cadastro</text>
  </g>

  <g>
    <rect x="620" y="40" width="260" height="120" rx="6" fill="#FFFFFF" stroke="#8B2E2E" stroke-width="1.6"/>
    <rect x="620" y="40" width="260" height="30" rx="6" fill="#8B2E2E"/>
    <rect x="620" y="58" width="260" height="12" fill="#8B2E2E"/>
    <text x="750" y="60" text-anchor="middle" fill="#FFFFFF" font-size="15" font-weight="bold">BARBEIROS</text>
    <text x="635" y="90" font-size="13" fill="#222"><tspan font-weight="bold">PK</tspan> id_barbeiro</text>
    <text x="635" y="110" font-size="13" fill="#222">nome, telefone</text>
    <text x="635" y="130" font-size="13" fill="#222">especialidade</text>
    <text x="635" y="150" font-size="13" fill="#222">data_contratacao</text>
  </g>

  <g>
    <rect x="1200" y="40" width="260" height="120" rx="6" fill="#FFFFFF" stroke="#8B2E2E" stroke-width="1.6"/>
    <rect x="1200" y="40" width="260" height="30" rx="6" fill="#8B2E2E"/>
    <rect x="1200" y="58" width="260" height="12" fill="#8B2E2E"/>
    <text x="1330" y="60" text-anchor="middle" fill="#FFFFFF" font-size="15" font-weight="bold">SERVICOS</text>
    <text x="1215" y="90" font-size="13" fill="#222"><tspan font-weight="bold">PK</tspan> id_servico</text>
    <text x="1215" y="110" font-size="13" fill="#222">nome, descricao</text>
    <text x="1215" y="130" font-size="13" fill="#222">preco</text>
    <text x="1215" y="150" font-size="13" fill="#222">duracao_minutos</text>
  </g>

  <g>
    <rect x="620" y="280" width="260" height="160" rx="6" fill="#FFFFFF" stroke="#2E4A8B" stroke-width="1.6"/>
    <rect x="620" y="280" width="260" height="30" rx="6" fill="#2E4A8B"/>
    <rect x="620" y="298" width="260" height="12" fill="#2E4A8B"/>
    <text x="750" y="300" text-anchor="middle" fill="#FFFFFF" font-size="15" font-weight="bold">AGENDAMENTOS</text>
    <text x="635" y="330" font-size="13" fill="#222"><tspan font-weight="bold">PK</tspan> id_agendamento</text>
    <text x="635" y="350" font-size="13" fill="#222"><tspan font-weight="bold">FK</tspan> id_cliente</text>
    <text x="635" y="370" font-size="13" fill="#222"><tspan font-weight="bold">FK</tspan> id_barbeiro</text>
    <text x="635" y="390" font-size="13" fill="#222"><tspan font-weight="bold">FK</tspan> id_servico</text>
    <text x="635" y="410" font-size="13" fill="#222">data_hora</text>
    <text x="635" y="430" font-size="13" fill="#222">status</text>
  </g>

  <g>
    <rect x="1200" y="470" width="260" height="120" rx="6" fill="#FFFFFF" stroke="#8B2E2E" stroke-width="1.6"/>
    <rect x="1200" y="470" width="260" height="30" rx="6" fill="#8B2E2E"/>
    <rect x="1200" y="488" width="260" height="12" fill="#8B2E2E"/>
    <text x="1330" y="490" text-anchor="middle" fill="#FFFFFF" font-size="15" font-weight="bold">PRODUTOS</text>
    <text x="1215" y="520" font-size="13" fill="#222"><tspan font-weight="bold">PK</tspan> id_produto</text>
    <text x="1215" y="540" font-size="13" fill="#222">nome, descricao</text>
    <text x="1215" y="560" font-size="13" fill="#222">preco</text>
    <text x="1215" y="580" font-size="13" fill="#222">quantidade_estoque</text>
  </g>

  <g>
    <rect x="620" y="520" width="260" height="140" rx="6" fill="#FFFFFF" stroke="#2E4A8B" stroke-width="1.6"/>
    <rect x="620" y="520" width="260" height="30" rx="6" fill="#2E4A8B"/>
    <rect x="620" y="538" width="260" height="12" fill="#2E4A8B"/>
    <text x="750" y="540" text-anchor="middle" fill="#FFFFFF" font-size="15" font-weight="bold">VENDAS</text>
    <text x="635" y="570" font-size="13" fill="#222"><tspan font-weight="bold">PK</tspan> id_venda</text>
    <text x="635" y="590" font-size="13" fill="#222"><tspan font-weight="bold">FK</tspan> id_cliente (opcional)</text>
    <text x="635" y="610" font-size="13" fill="#222"><tspan font-weight="bold">FK</tspan> id_barbeiro</text>
    <text x="635" y="630" font-size="13" fill="#222">data_hora</text>
    <text x="635" y="650" font-size="13" fill="#222">valor_total</text>
  </g>

  <g>
    <rect x="280" y="760" width="260" height="120" rx="6" fill="#FFFFFF" stroke="#3C7A5A" stroke-width="1.6"/>
    <rect x="280" y="760" width="260" height="30" rx="6" fill="#3C7A5A"/>
    <rect x="280" y="778" width="260" height="12" fill="#3C7A5A"/>
    <text x="410" y="780" text-anchor="middle" fill="#FFFFFF" font-size="14" font-weight="bold">ITENS_VENDA_SERVICO</text>
    <text x="295" y="810" font-size="13" fill="#222"><tspan font-weight="bold">PK</tspan> id_item</text>
    <text x="295" y="830" font-size="13" fill="#222"><tspan font-weight="bold">FK</tspan> id_venda</text>
    <text x="295" y="850" font-size="13" fill="#222"><tspan font-weight="bold">FK</tspan> id_servico</text>
    <text x="295" y="870" font-size="13" fill="#222">preco_unitario</text>
  </g>

  <g>
    <rect x="940" y="760" width="260" height="140" rx="6" fill="#FFFFFF" stroke="#3C7A5A" stroke-width="1.6"/>
    <rect x="940" y="760" width="260" height="30" rx="6" fill="#3C7A5A"/>
    <rect x="940" y="778" width="260" height="12" fill="#3C7A5A"/>
    <text x="1070" y="780" text-anchor="middle" fill="#FFFFFF" font-size="14" font-weight="bold">ITENS_VENDA_PRODUTO</text>
    <text x="955" y="810" font-size="13" fill="#222"><tspan font-weight="bold">PK</tspan> id_item</text>
    <text x="955" y="830" font-size="13" fill="#222"><tspan font-weight="bold">FK</tspan> id_venda</text>
    <text x="955" y="850" font-size="13" fill="#222"><tspan font-weight="bold">FK</tspan> id_produto</text>
    <text x="955" y="870" font-size="13" fill="#222">quantidade, preco_unitario</text>
  </g>

  <text x="780" y="925" text-anchor="middle" font-size="13" fill="#555">Diagrama ER (notacao UML simplificada) - Sistema para Gerenciamento de Barbearia</text>
</svg>
